<?xml version="1.0" encoding="UTF-8"?>
<svg id="Layer_1" data-name="Layer 1" xmlns="http://www.w3.org/2000/svg" xmlns:xlink="http://www.w3.org/1999/xlink" viewBox="0 0 1080 1024">
  <defs>
    <style>
      .cls-1 {
        fill: url(#linear-gradient-2);
      }

      .cls-2 {
        fill: url(#linear-gradient-4);
      }

      .cls-3 {
        fill: url(#linear-gradient-3);
      }

      .cls-4 {
        fill: url(#linear-gradient);
      }
    </style>
    <linearGradient id="linear-gradient" x1="723.6" y1="412.42" x2="1312.67" y2="412.42" gradientTransform="translate(1713.82) rotate(-180) scale(1 -1)" gradientUnits="userSpaceOnUse">
      <stop offset="0" stop-color="#2082a6"/>
      <stop offset=".2" stop-color="#1d86a6"/>
      <stop offset=".44" stop-color="#1894a8"/>
      <stop offset=".69" stop-color="#0eabaa"/>
      <stop offset=".95" stop-color="#01cbae"/>
    </linearGradient>
    <linearGradient id="linear-gradient-2" x1="673.82" y1="644.71" x2="1673.82" y2="644.71" xlink:href="#linear-gradient"/>
    <linearGradient id="linear-gradient-3" x1="1242.15" y1="729.08" x2="1549.13" y2="729.08" gradientTransform="translate(1713.82) rotate(-180) scale(1 -1)" gradientUnits="userSpaceOnUse">
      <stop offset="0" stop-color="#005d84"/>
      <stop offset=".16" stop-color="#006185"/>
      <stop offset=".35" stop-color="#006f8b"/>
      <stop offset=".55" stop-color="#008694"/>
      <stop offset=".76" stop-color="#00a7a0"/>
      <stop offset=".95" stop-color="#01cbae"/>
    </linearGradient>
    <linearGradient id="linear-gradient-4" x1="938.53" y1="673.88" x2="1584.39" y2="673.88" xlink:href="#linear-gradient-3"/>
  </defs>
  <g>
    <polygon class="cls-4" points="990.22 747.83 699.83 587.42 617.9 407.74 560.86 518.67 401.15 456.17 610.64 77 990.22 747.83"/>
    <path class="cls-1" d="M1040,877h-194.32c-68.93-72.33-144.03-135.39-227.78-185.5-133.58-88.16-265.98-158.44-397.21-214.5l-180.7-64.58c111.74,11.23,224.53,33.58,338.34,66.67,103.51,33.85,209.76,83.81,317.35,141.71,105.81,53.16,223.15,147.79,344.31,256.2Z"/>
  </g>
  <g>
    <path class="cls-3" d="M378.78,874.92l-214.08,2.08,161.79-295.83c57.58,41.89,109.9,80.87,145.19,110.42l-92.9,183.33Z"/>
    <path class="cls-2" d="M775.29,877h-139.51c-31.43-56.22-78.73-115.78-164.1-183.33-51.5-42.75-100.22-80.63-143.12-108.33-63.71-46.08-129.58-85.75-199.12-114.58,66.94,20.8,133.27,48.39,199.12,81.25,59.25,28.43,118.72,62.69,178.38,102.08,94.8,61.89,187.09,137.8,268.36,222.92Z"/>
  </g>
</svg>